<svg width="217" height="29" viewBox="0 0 217 29" fill="none" xmlns="http://www.w3.org/2000/svg">
<path d="M198.981 28.0987L196.279 28.1228L186.735 2.99204L189.327 2.68848L198.981 28.0987Z" fill="#5DD667"/>
<path d="M217 1.8446V20.8097L207.556 21.9296L206.683 19.6349L198.115 20.6382L191.221 2.46717L208.01 0.5L208.871 2.79646L217 1.8446Z" fill="#5DD667"/>
<path d="M0 20.3912V9.26562H2.99215V20.2025C2.99215 22.0119 3.44123 23.3771 4.33769 24.2947C5.23584 25.2122 6.46911 25.6718 8.04088 25.6718C9.73683 25.6718 11.1266 25.1007 12.2119 23.9568C13.2954 22.8128 13.8381 21.3105 13.8381 19.4496V9.26562H16.8302V28.1209H13.8381V25.2928H13.8006C13.7513 25.3683 13.6765 25.4815 13.5761 25.6324C13.4757 25.7833 13.2393 26.0406 12.8651 26.4059C12.4908 26.7712 12.0843 27.0971 11.6488 27.3869C11.2116 27.6767 10.6197 27.934 9.87292 28.1587C9.12445 28.3851 8.32666 28.4983 7.47783 28.4983C5.20863 28.4983 3.3936 27.7762 2.03616 26.3287C0.67872 24.8864 0 22.9055 0 20.3912Z" fill="#5DD667"/>
<path d="M20.5874 28.1218V9.26477H23.5796V12.0929H23.617C23.6663 12.0174 23.7412 11.9042 23.8415 11.7533C23.9402 11.6024 24.1783 11.3451 24.5526 10.9798C24.9268 10.6162 25.3316 10.2887 25.7688 9.99881C26.2043 9.70897 26.7979 9.45171 27.5447 9.22532C28.2932 8.99894 29.091 8.88574 29.9398 8.88574C32.209 8.88574 34.0223 9.6095 35.3815 11.0553C36.7406 12.5011 37.4193 14.4803 37.4193 16.9945V28.1201H34.4272V17.1832C34.4272 15.3738 33.9781 14.0086 33.0799 13.0911C32.1818 12.1735 30.9485 11.7139 29.3767 11.7139C27.6808 11.7139 26.291 12.2867 25.2058 13.4289C24.1205 14.5729 23.5796 16.0753 23.5796 17.9361V28.1184H20.5874V28.1218Z" fill="#5DD667"/>
<path d="M39.3007 12.0943V9.26615H41.7315V5.11914H44.7236V9.26786H50.7079V12.096H44.7236V25.2951H50.895V28.1232H41.7298V12.0943H39.3007Z" fill="#5DD667"/>
<path d="M53.9183 28.1225V1.72266H56.9105V12.0936H56.9479C56.9972 12.0181 57.0721 11.9049 57.1725 11.754C57.2711 11.6031 57.5093 11.3458 57.8835 10.9805C58.2577 10.6169 58.6626 10.2894 59.0997 9.99951C59.5352 9.70967 60.1289 9.45241 60.8756 9.22602C61.6241 8.99964 62.4219 8.88644 63.2707 8.88644C65.5399 8.88644 67.3533 9.6102 68.7124 11.056C70.0715 12.5018 70.7503 14.481 70.7503 16.9952V28.1208H67.7581V17.1839C67.7581 15.3745 67.309 14.0093 66.4109 13.0918C65.5127 12.1742 64.2795 11.7146 62.7077 11.7146C61.0117 11.7146 59.622 12.2874 58.5367 13.4296C57.4514 14.5736 56.9105 16.076 56.9105 17.9368V28.1191H53.9183V28.1225Z" fill="#5DD667"/>
<path d="M73.7661 28.1227V9.26565H76.7583V28.121H73.7661V28.1227ZM73.7661 1.53418H76.7583V6.07565H73.7661V1.53418Z" fill="#5DD667"/>
<path d="M80.0994 28.1218V9.26477H83.0915V12.0929H83.1289C83.1783 12.0174 83.2531 11.9042 83.3535 11.7533C83.4521 11.6024 83.6903 11.3451 84.0645 10.9798C84.4388 10.6162 84.8436 10.2887 85.2808 9.99881C85.7162 9.70897 86.3099 9.45171 87.0567 9.22532C87.8051 8.99894 88.6029 8.88574 89.4518 8.88574C91.721 8.88574 93.5343 9.6095 94.8934 11.0553C96.2526 12.5011 96.9313 14.4803 96.9313 16.9945V28.1201H93.9391V17.1832C93.9391 15.3738 93.4901 14.0086 92.5919 13.0911C91.6937 12.1735 90.4605 11.7139 88.8887 11.7139C87.1928 11.7139 85.803 12.2867 84.7177 13.4289C83.6325 14.5729 83.0915 16.0753 83.0915 17.9361V28.1184H80.0994V28.1218Z" fill="#5DD667"/>
<path d="M99.8163 28.1225V1.72266H102.808V16.8083H106.549L112.533 9.26547H116.087L109.167 18.1272L116.647 28.1208H112.906L106.547 19.6364H102.807V28.1208H99.8163V28.1225Z" fill="#5DD667"/>
<path d="M119.106 25.6894C117.347 23.8165 116.469 21.484 116.469 18.6936C116.469 15.9032 117.347 13.5708 119.106 11.6979C120.865 9.82509 122.978 8.88867 125.446 8.88867C126.344 8.88867 127.191 9.00873 127.989 9.24712C128.787 9.48723 129.43 9.76849 129.916 10.0961C130.403 10.4236 130.82 10.7564 131.17 11.0959C131.519 11.4355 131.769 11.7185 131.918 11.9449C132.068 12.1713 132.143 12.2982 132.143 12.3222H132.18V9.26598H135.173V28.1213H132.18V25.1045H132.143C132.143 25.1302 132.068 25.2503 131.918 25.463C131.769 25.6773 131.52 25.9603 131.17 26.3119C130.82 26.6635 130.403 26.9979 129.916 27.3118C129.43 27.6274 128.789 27.9035 127.989 28.1419C127.191 28.382 126.344 28.5003 125.446 28.5003C122.978 28.5003 120.865 27.5639 119.106 25.6894ZM121.295 13.6788C120.074 14.9857 119.463 16.6579 119.463 18.6936C119.463 20.7294 120.074 22.4033 121.295 23.7102C122.517 25.0171 124.026 25.6705 125.822 25.6705C127.618 25.6705 129.127 25.0171 130.348 23.7102C131.571 22.4033 132.182 20.7311 132.182 18.6936C132.182 16.6579 131.571 14.9857 130.348 13.6788C129.127 12.3719 127.618 11.7185 125.822 11.7185C124.026 11.7185 122.517 12.3719 121.295 13.6788Z" fill="#5DD667"/>
<path d="M138.959 28.1225V1.72266H141.953V12.2823H141.991C141.991 12.2565 142.065 12.1382 142.215 11.9238C142.365 11.7111 142.613 11.4282 142.964 11.0749C143.312 10.7233 143.731 10.3905 144.217 10.075C144.704 9.76112 145.345 9.485 146.143 9.24489C146.941 9.0065 147.789 8.88644 148.688 8.88644C151.157 8.88644 153.27 9.82286 155.027 11.6957C156.785 13.5685 157.664 15.901 157.664 18.6914C157.664 21.4818 156.785 23.8143 155.027 25.6871C153.268 27.5617 151.156 28.4964 148.688 28.4964C147.789 28.4964 146.942 28.3763 146.143 28.1379C145.345 27.8995 144.704 27.6234 144.217 27.3079C143.731 26.994 143.312 26.6613 142.964 26.308C142.615 25.9564 142.365 25.6717 142.215 25.459C142.065 25.2464 141.991 25.1263 141.991 25.1006H141.953V28.1174H138.959V28.1225ZM143.785 13.6783C142.564 14.9852 141.953 16.6574 141.953 18.6931C141.953 20.7289 142.564 22.4028 143.785 23.7097C145.006 25.0165 146.515 25.67 148.312 25.67C150.108 25.67 151.617 25.0165 152.838 23.7097C154.061 22.4028 154.672 20.7306 154.672 18.6931C154.672 16.6574 154.061 14.9852 152.838 13.6783C151.617 12.3714 150.108 11.718 148.312 11.718C146.515 11.718 145.006 12.3714 143.785 13.6783Z" fill="#5DD667"/>
<path d="M163.095 1.72266V28.1208H160.101V4.5525H155.799V1.72266H163.095Z" fill="#5DD667"/>
<path d="M168.154 25.7082C166.334 23.8491 165.424 21.5098 165.424 18.6936C165.424 15.8775 166.332 13.5399 168.154 11.6791C169.974 9.81823 172.245 8.88867 174.962 8.88867C177.678 8.88867 179.949 9.80623 181.769 11.6413C183.59 13.4764 184.5 15.7643 184.5 18.505V19.6369H168.416C168.59 21.3966 169.301 22.8424 170.548 23.9743C171.795 25.1062 173.266 25.6722 174.962 25.6722C175.809 25.6722 176.595 25.5522 177.318 25.3138C178.041 25.0754 178.626 24.7941 179.077 24.4665C179.524 24.1407 179.912 23.8131 180.235 23.4855C180.558 23.1596 180.783 22.8698 180.909 22.6177L181.133 22.2781H184.125C184.076 22.4548 183.988 22.6811 183.864 22.9573C183.738 23.2334 183.433 23.729 182.948 24.4459C182.464 25.1628 181.9 25.7905 181.264 26.3308C180.628 26.8727 179.749 27.3684 178.628 27.8195C177.505 28.2722 176.284 28.4986 174.962 28.4986C172.244 28.5003 169.974 27.5691 168.154 25.7082ZM168.491 16.9975H181.32C181.12 15.5139 180.441 14.2637 179.281 13.2449C178.122 12.2262 176.682 11.7185 174.962 11.7185C173.24 11.7185 171.795 12.2279 170.622 13.2449C169.45 14.2637 168.741 15.5139 168.491 16.9975Z" fill="#5DD667"/>
</svg>
